<svg xmlns="http://www.w3.org/2000/svg"  viewBox="0 0 64 64" width="128px" height="128px"><linearGradient id="SFrL1fc3Bw06s9t2BaHusa" x1="30.5" x2="30.5" y1="4.223" y2="60.821" gradientUnits="userSpaceOnUse"><stop offset="0" stop-color="#6dc7ff"/><stop offset="1" stop-color="#e6abff"/></linearGradient><path fill="url(#SFrL1fc3Bw06s9t2BaHusa)" d="M56.101,5.698c-0.416-0.88-1.306-1.475-2.36-1.475c-0.972,0-1.812,0.485-2.317,1.303 c-0.238-0.053-0.486-0.08-0.741-0.08c-1.215,0-3.452,0.114-4.784,0.875c-0.04,0.023-0.079,0.047-0.117,0.072 c-1.061,0.707-1.728,1.679-1.928,2.785c-0.287-0.04-0.579-0.063-0.877-0.063c-1.08,0-3.106,0.367-4.541,2.827 c-0.501,0.835-0.762,1.881-0.762,3.087c0,3.502,2.923,6.112,5.943,8.482c-0.284-0.14-0.586-0.207-0.884-0.207 c-0.673,0-1.327,0.341-1.703,0.949c-0.234,0.378-0.327,0.806-0.292,1.221c-0.316-0.154-0.621-0.274-0.937-0.362 c-0.663-1.906-2.559-4.555-5.166-5.652c-1.336-4.71-4.789-5.451-6.827-5.451c-6.155,0-7.302,6.507-8.062,10.813l-0.024,0.135 c-0.144,0.789-0.309,1.701-0.489,2.535c-0.62-2.449-2.052-3.698-4.269-3.698c-1.384,0-2.523,0.517-3.401,1.539 c-0.388-0.581-0.989-1.014-1.684-1.229c-0.007-0.04-0.01-0.086-0.01-0.145c0-1.464-1.147-2.612-2.612-2.612 c-1.055,0-1.945,0.595-2.36,1.475c-0.88,0.416-1.475,1.306-1.475,2.36c0,1.399,1.046,2.508,2.416,2.605 c0.039,0.199,0.097,0.395,0.173,0.584c0.028,0.07,0.06,0.139,0.096,0.206c0.979,1.817,2.518,3.26,4.117,3.86 c0.508,0.204,1.094,0.315,1.703,0.315c0.643,0,1.27-0.124,1.851-0.353c0.783,2.629,2.491,3.957,5.1,3.957 c5.449,0,6.607-5.443,7.241-9.49c0.324,0.691,1.024,1.15,1.811,1.15c0,0,0,0,0,0c0.453,0,0.876-0.152,1.216-0.413 c0.016,0.212,0.038,0.433,0.07,0.657c-1.239,1.325-2.505,3.637-2.601,6.13c-1.581,1.099-2.64,2.324-3.223,3.722 c-0.652,1.466-0.62,3.231,0.112,5.059c0.815,1.903,2.604,4.117,6.605,4.117c2.207,0,4.565-0.639,6.846-1.256l0.305-0.082 c0.924-0.244,1.796-0.471,2.577-0.648c-1.453,1.054-2.986,2.812-1.89,5.472c0.018,0.045,0.039,0.089,0.06,0.133 c0.859,1.719,2.534,2.227,3.904,2.434c-0.219,0.318-0.376,0.668-0.467,1.033c-1.433,0.033-2.547,1.168-2.547,2.611 c0,1.055,0.595,1.945,1.475,2.36c0.416,0.88,1.306,1.475,2.36,1.475c1.423,0,2.512-1.074,2.605-2.529 c0.187-0.04,0.352-0.089,0.5-0.133c0.092-0.027,0.195-0.058,0.316-0.089c0.327-0.082,0.628-0.245,0.876-0.475 c2.26-2.098,2.238-4.484,2.23-5.382l-0.001-0.12c0-1.496-0.754-2.88-1.935-3.785c1.915-1.765,2.388-3.796,1.402-6.064 c-0.007-0.016-0.014-0.032-0.022-0.048c-0.757-1.622-2.426-3.555-6.082-3.555c-1.846,0-3.805,0.466-5.725,0.97 c0.275-0.495,0.338-1.1,0.128-1.667c-0.17-0.46-0.493-0.822-0.893-1.048c0.431-0.215,0.789-0.432,1.111-0.715 c0.611,0.176,1.163,0.176,1.698,0.176c1.096,0,3.618-0.182,5.761-1.677c0.825,0.254,1.648,0.382,2.457,0.382 c0.636,0,1.259-0.082,1.85-0.243c0.016-0.004,0.032-0.009,0.049-0.014c1.812-0.544,3.205-1.701,4.027-3.345 c2.853-5.37-2.085-9.759-5.353-12.664c-0.677-0.597-1.783-1.573-2.594-2.439c0.633,0.229,1.364,0.419,2.131,0.419 c1.57,0,2.88-0.793,3.69-2.232c0.016-0.028,0.031-0.057,0.046-0.086c0.435-0.871,0.566-1.77,0.402-2.639 c0.661-0.141,1.238-0.476,1.67-0.958c0.754-0.124,1.408-0.19,1.888-0.19c1.464,0,2.612-1.147,2.612-2.612 C57.576,7.003,56.981,6.113,56.101,5.698z M33.189,39.298c-0.018,0-0.036-0.006-0.054-0.006c0.023,0,0.046,0.005,0.069,0.005 C33.199,39.297,33.194,39.298,33.189,39.298z"/><linearGradient id="SFrL1fc3Bw06s9t2BaHusb" x1="30.5" x2="30.5" y1="58.821" y2="6.223" gradientUnits="userSpaceOnUse"><stop offset="0" stop-color="#c822ff"/><stop offset="1" stop-color="#1a6dff"/></linearGradient><path fill="url(#SFrL1fc3Bw06s9t2BaHusb)" d="M54.964,7.446c-0.228,0-0.465,0.01-0.705,0.026c0.059-0.202,0.094-0.416,0.094-0.638 c0-0.367-0.245-0.612-0.612-0.612c-0.367,0-0.612,0.245-0.734,0.612c0,0.489-0.122,0.734-0.245,0.734 c-0.092,0.031-0.169,0.069-0.232,0.115c-0.333,0.055-0.646,0.111-0.919,0.164c-0.215-0.249-0.531-0.402-0.929-0.402 c-1.101,0-2.936,0.122-3.792,0.612c-0.734,0.489-1.101,1.101-1.101,1.835c0,0.489,0.122,0.979,0.367,1.468 c0.245,0.367,0.367,0.612,0.612,0.856c-0.245-0.122-0.734-0.245-0.979-0.367c-0.856-0.367-1.835-0.734-2.813-0.734 c-0.856,0-1.957,0.367-2.813,1.835c-0.367,0.612-0.489,1.346-0.489,2.079c0,2.569,2.446,4.771,5.26,6.972 c3.303,3.058,5.505,5.26,4.281,7.339c-0.367,0.612-0.856,0.979-1.346,1.101c-0.636,0.212-1.551,0.044-2.5-0.321 c0.021-0.179,0.054-0.357,0.054-0.536c0-0.612-0.122-1.223-0.245-1.835c-0.245-0.612-0.612-1.223-0.979-1.59 c-0.489-0.489-0.979-0.612-1.468-0.856c0.489,0.367,0.856,0.734,0.979,1.223c0.245,0.489,0.245,0.856,0.245,1.346 c0,0.489-0.122,0.979-0.367,1.346c-0.029,0.044-0.058,0.092-0.087,0.139c-0.821-0.413-1.617-0.826-2.237-1.24 c-1.101-0.734-1.59-0.979-2.079-1.101c-0.362-0.045-0.723-0.025-1.079,0.024c-0.007-0.371-0.05-0.747-0.144-1.125 c-0.489-1.59-2.446-4.404-5.015-4.893c-0.489-2.691-1.835-5.015-5.137-5.015c-4.526,0-5.382,5.138-6.116,9.296 c-0.734,4.037-1.223,6.605-3.058,6.605c-0.612,0-0.856-0.245-1.101-2.446c-0.122-1.346-0.367-3.67-2.569-3.67 c-1.468,0-2.079,0.979-2.446,1.713c0,0.122-0.122,0.367-0.245,0.489c-0.122,0.245-0.367,0.367-0.612,0.245 c-0.489-0.122-1.223-0.856-1.712-1.713c-0.191-0.382-0.68-0.606-1.177-0.573c-0.016-0.011-0.028-0.03-0.046-0.039 c0-0.122-0.856-0.612-0.856-1.957c0-0.367-0.245-0.612-0.612-0.612c-0.367,0-0.612,0.245-0.612,0.612 c0,0.228,0.024,0.435,0.055,0.634c-0.199-0.018-0.409-0.022-0.667-0.022c-0.367,0-0.612,0.245-0.612,0.612s0.245,0.612,0.612,0.612 s0.734,0,0.979,0.122c0.091,0,0.126,0,0.183,0c0.22,0.342,0.461,0.588,0.661,0.746c-0.104,0.299-0.115,0.648,0.013,0.967 c0.856,1.59,2.079,2.569,3.058,2.936c1.223,0.489,2.813,0,3.547-1.223c0.122-0.245,0.245-0.489,0.367-0.612 s0.122-0.245,0.245-0.367c0.122,0.245,0.245,0.979,0.245,1.346c0.122,1.59,0.367,4.648,3.547,4.648 c4.037,0,4.771-4.526,5.382-8.563c0.734-4.404,1.346-7.339,3.67-7.339c1.611,0,2.429,1.101,2.829,2.951 c-0.164,0.067-0.33,0.137-0.505,0.207c-0.489,0.245-0.979,0.612-1.468,1.101c-0.367,0.489-0.734,0.979-0.856,1.59 c-0.122,0.612-0.122,1.223,0,1.713c0.122-0.489,0.245-0.979,0.612-1.346c0.367-0.367,0.734-0.734,1.101-0.856 c0.489-0.122,0.856-0.245,1.346-0.245c0.018,0,0.035,0.001,0.053,0.001c0.05,0.76,0.07,1.584,0.07,2.468 c0,0.659-0.037,1.944,0.322,2.941c-0.108,0.078-0.221,0.147-0.322,0.239c-1.223,0.979-2.813,3.67-2.446,6.238 c-1.468,0.856-2.813,1.957-3.425,3.425c-0.489,1.101-0.367,2.324,0.122,3.547c1.835,4.281,6.85,2.813,11.376,1.59 c4.159-1.101,6.85-1.712,7.584-0.122c0.367,0.734,0.122,1.101-1.957,2.202c-1.346,0.734-3.425,1.835-2.569,3.914 c0.612,1.223,2.202,1.346,3.425,1.468c0.367,0.122,0.612,0.122,0.856,0.122c0.245,0.122,0.489,0.245,0.489,0.489 c0,0.489,0,1.346-0.856,2.202c-0.351,0.351-0.44,0.826-0.287,1.248c-0.171,0.12-0.681,0.832-1.914,0.832 c-0.367,0-0.612,0.245-0.612,0.612c0,0.367,0.245,0.612,0.612,0.612c0.222,0,0.419-0.024,0.612-0.051c0,0.017,0,0.034,0,0.051 v0.612c0,0.367,0.245,0.612,0.612,0.612c0.367,0,0.612-0.245,0.612-0.734v-0.612c0-0.124,0-0.218,0-0.311 c0.515-0.276,0.838-0.614,1.024-0.829c0.068,0.011,0.122,0.039,0.2,0.039c0.367,0,0.612-0.122,1.101-0.245 c1.713-1.59,1.59-3.303,1.59-4.037c0-1.346-1.101-2.569-2.569-2.813c-0.245-0.122-0.612-0.122-0.979-0.122 c-0.367,0-0.734-0.122-1.101-0.122c0.245-0.245,0.856-0.489,1.223-0.734c1.59-0.856,4.281-2.446,3.058-5.26 c-1.712-3.67-6.361-2.324-10.52-1.223c-4.526,1.223-7.584,1.835-8.563-0.245c-0.367-0.612-0.367-1.223-0.122-1.713 c0.307-0.817,1.212-1.548,2.214-2.194c0.112,0.116,0.229,0.234,0.355,0.36c0.489,0.367,0.979,0.734,1.59,0.979 c0.612,0.245,1.223,0.367,1.835,0.245c0.489,0,0.979-0.367,1.468-0.612c-0.489,0.122-0.979,0.122-1.468,0s-0.979-0.245-1.223-0.612 c-0.367-0.367-0.489-0.734-0.734-1.101c-0.025-0.075-0.057-0.158-0.089-0.241c0.831-0.372,1.685-0.679,2.291-0.982 c1.101-0.489,1.713-0.734,2.079-1.101c0.254-0.232,0.452-0.501,0.624-0.782c0.335,0.189,0.695,0.342,1.088,0.416 c0.367,0.122,0.734,0.122,1.223,0.122c1.712,0,3.914-0.489,5.382-1.957c1.346,0.612,2.813,0.856,4.159,0.489 c1.223-0.367,2.202-1.101,2.813-2.324c2.079-3.914-1.59-7.339-4.893-10.275c-2.079-1.835-4.281-3.792-4.281-5.382 c0-0.245,0-0.612,0.122-0.856c0.367-0.489,0.612-0.489,0.734-0.489c0.489,0,1.223,0.245,1.835,0.489 c1.346,0.612,3.303,1.468,4.404-0.489c0.612-1.223,0-2.202-0.612-2.813c-0.122-0.122-0.245-0.367-0.367-0.612 c0.489-0.122,1.468-0.245,2.446-0.245c0.593,0,1.011-0.329,1.156-0.839C52.707,8.88,53.96,8.67,54.964,8.67 c0.367,0,0.612-0.245,0.612-0.612S55.331,7.446,54.964,7.446z M36.004,26.773c0,0.367,0,0.734-0.122,0.979 c-0.122,0.245-0.367,0.489-0.734,0.612c-1.198,0.177-1.437-0.348-1.554-0.739c-0.105-0.352-0.036-0.973-0.036-1.585 c0-0.734,0-1.468,0-2.324C34.781,24.449,35.76,25.917,36.004,26.773z M34.414,32.889c-0.245,0.122-0.856,0.367-1.468,0.612 c-0.612,0.245-1.223,0.489-1.835,0.734c0.122-1.346,1.101-2.691,1.59-3.18c0.245-0.245,0.612-0.367,0.856-0.367 c0.367,0,0.612,0.122,0.856,0.489C34.904,31.666,34.904,32.522,34.414,32.889z M38.206,31.911 c-0.612-0.122-1.101-0.856-0.979-1.468c0-0.245,0.245-0.612,0.489-0.734c0.245-0.122,0.489-0.245,0.734-0.245 c0.122,0,0.122,0,0.122,0c0.245,0,0.856,0.367,1.346,0.734c0.612,0.367,1.223,0.734,1.835,1.101 C40.53,32.033,38.818,32.033,38.206,31.911z"/></svg>